<mxfile host="Electron" agent="Mozilla/5.0 (Windows NT 10.0; Win64; x64) AppleWebKit/537.36 (KHTML, like Gecko) draw.io/28.1.2 Chrome/138.0.7204.243 Electron/37.4.0 Safari/537.36" version="28.1.2">
  <diagram name="Seite-1" id="YXeTvXMgNAhoYjU9Dbq3">
    <mxGraphModel dx="1426" dy="841" grid="1" gridSize="10" guides="1" tooltips="1" connect="1" arrows="1" fold="1" page="1" pageScale="1" pageWidth="827" pageHeight="1169" math="0" shadow="0">
      <root>
        <mxCell id="0" />
        <mxCell id="1" parent="0" />
        <mxCell id="j-_EEUoK-tCJKlXLMHS_-1" value="Start" style="ellipse;whiteSpace=wrap;html=1;" vertex="1" parent="1">
          <mxGeometry x="250" y="20" width="200" height="80" as="geometry" />
        </mxCell>
        <mxCell id="j-_EEUoK-tCJKlXLMHS_-2" value="End" style="ellipse;whiteSpace=wrap;html=1;" vertex="1" parent="1">
          <mxGeometry x="265" y="610" width="190" height="80" as="geometry" />
        </mxCell>
        <mxCell id="j-_EEUoK-tCJKlXLMHS_-3" value="input" style="shape=parallelogram;perimeter=parallelogramPerimeter;whiteSpace=wrap;html=1;fixedSize=1;" vertex="1" parent="1">
          <mxGeometry x="255" y="210" width="200" height="60" as="geometry" />
        </mxCell>
        <mxCell id="j-_EEUoK-tCJKlXLMHS_-5" value="" style="endArrow=classic;html=1;rounded=0;" edge="1" parent="1">
          <mxGeometry width="50" height="50" relative="1" as="geometry">
            <mxPoint x="354.5" y="100" as="sourcePoint" />
            <mxPoint x="355" y="120" as="targetPoint" />
          </mxGeometry>
        </mxCell>
        <mxCell id="j-_EEUoK-tCJKlXLMHS_-7" value="" style="endArrow=classic;html=1;rounded=0;entryX=0.5;entryY=0;entryDx=0;entryDy=0;exitX=0.5;exitY=1;exitDx=0;exitDy=0;" edge="1" parent="1" source="j-_EEUoK-tCJKlXLMHS_-11" target="j-_EEUoK-tCJKlXLMHS_-2">
          <mxGeometry width="50" height="50" relative="1" as="geometry">
            <mxPoint x="362.5" y="567" as="sourcePoint" />
            <mxPoint x="362" y="602" as="targetPoint" />
          </mxGeometry>
        </mxCell>
        <mxCell id="j-_EEUoK-tCJKlXLMHS_-9" value="print wie Ali bist DU!" style="rounded=1;whiteSpace=wrap;html=1;" vertex="1" parent="1">
          <mxGeometry x="250" y="120" width="200" height="60" as="geometry" />
        </mxCell>
        <mxCell id="j-_EEUoK-tCJKlXLMHS_-24" value="" style="edgeStyle=orthogonalEdgeStyle;rounded=0;orthogonalLoop=1;jettySize=auto;html=1;" edge="1" parent="1" source="j-_EEUoK-tCJKlXLMHS_-10" target="j-_EEUoK-tCJKlXLMHS_-23">
          <mxGeometry relative="1" as="geometry" />
        </mxCell>
        <mxCell id="j-_EEUoK-tCJKlXLMHS_-10" value="over 50" style="rhombus;whiteSpace=wrap;html=1;" vertex="1" parent="1">
          <mxGeometry x="270" y="300" width="170" height="130" as="geometry" />
        </mxCell>
        <mxCell id="j-_EEUoK-tCJKlXLMHS_-11" value="Du bist Alt Geworden" style="rounded=1;whiteSpace=wrap;html=1;" vertex="1" parent="1">
          <mxGeometry x="270" y="460" width="185" height="90" as="geometry" />
        </mxCell>
        <mxCell id="j-_EEUoK-tCJKlXLMHS_-15" value="" style="endArrow=classic;html=1;rounded=0;" edge="1" parent="1">
          <mxGeometry width="50" height="50" relative="1" as="geometry">
            <mxPoint x="354.5" y="430" as="sourcePoint" />
            <mxPoint x="355" y="470" as="targetPoint" />
          </mxGeometry>
        </mxCell>
        <mxCell id="j-_EEUoK-tCJKlXLMHS_-21" value="yes" style="edgeLabel;html=1;align=center;verticalAlign=middle;resizable=0;points=[];" vertex="1" connectable="0" parent="j-_EEUoK-tCJKlXLMHS_-15">
          <mxGeometry x="-0.0686" y="-2" relative="1" as="geometry">
            <mxPoint as="offset" />
          </mxGeometry>
        </mxCell>
        <mxCell id="j-_EEUoK-tCJKlXLMHS_-17" value="" style="endArrow=classic;html=1;rounded=0;" edge="1" parent="1">
          <mxGeometry width="50" height="50" relative="1" as="geometry">
            <mxPoint x="440" y="364.5" as="sourcePoint" />
            <mxPoint x="500" y="364.5" as="targetPoint" />
          </mxGeometry>
        </mxCell>
        <mxCell id="j-_EEUoK-tCJKlXLMHS_-26" value="No" style="edgeLabel;html=1;align=center;verticalAlign=middle;resizable=0;points=[];" vertex="1" connectable="0" parent="j-_EEUoK-tCJKlXLMHS_-17">
          <mxGeometry x="-0.1" y="-2" relative="1" as="geometry">
            <mxPoint x="3" y="-1" as="offset" />
          </mxGeometry>
        </mxCell>
        <mxCell id="j-_EEUoK-tCJKlXLMHS_-19" value="" style="endArrow=classic;html=1;rounded=0;entryX=0.5;entryY=0;entryDx=0;entryDy=0;" edge="1" parent="1" source="j-_EEUoK-tCJKlXLMHS_-9" target="j-_EEUoK-tCJKlXLMHS_-3">
          <mxGeometry width="50" height="50" relative="1" as="geometry">
            <mxPoint x="355" y="180" as="sourcePoint" />
            <mxPoint x="360" y="210" as="targetPoint" />
          </mxGeometry>
        </mxCell>
        <mxCell id="j-_EEUoK-tCJKlXLMHS_-20" value="" style="endArrow=classic;html=1;rounded=0;entryX=0.5;entryY=0;entryDx=0;entryDy=0;" edge="1" parent="1" target="j-_EEUoK-tCJKlXLMHS_-10">
          <mxGeometry width="50" height="50" relative="1" as="geometry">
            <mxPoint x="354.5" y="270" as="sourcePoint" />
            <mxPoint x="355" y="300" as="targetPoint" />
          </mxGeometry>
        </mxCell>
        <mxCell id="j-_EEUoK-tCJKlXLMHS_-23" value="Aha eines Tages du wirst Alt auch!" style="rounded=1;whiteSpace=wrap;html=1;" vertex="1" parent="1">
          <mxGeometry x="500" y="335" width="120" height="60" as="geometry" />
        </mxCell>
        <mxCell id="j-_EEUoK-tCJKlXLMHS_-28" value="" style="group" vertex="1" connectable="0" parent="1">
          <mxGeometry x="620" y="360" width="60" height="290" as="geometry" />
        </mxCell>
        <mxCell id="j-_EEUoK-tCJKlXLMHS_-16" value="" style="endArrow=classic;html=1;rounded=0;entryX=1;entryY=0.5;entryDx=0;entryDy=0;" edge="1" parent="j-_EEUoK-tCJKlXLMHS_-28" target="j-_EEUoK-tCJKlXLMHS_-2">
          <mxGeometry width="50" height="50" relative="1" as="geometry">
            <mxPoint x="60" as="sourcePoint" />
            <mxPoint x="60" y="260" as="targetPoint" />
            <Array as="points">
              <mxPoint x="60" y="290" />
            </Array>
          </mxGeometry>
        </mxCell>
        <mxCell id="j-_EEUoK-tCJKlXLMHS_-27" value="" style="endArrow=none;html=1;rounded=0;" edge="1" parent="j-_EEUoK-tCJKlXLMHS_-28">
          <mxGeometry width="50" height="50" relative="1" as="geometry">
            <mxPoint as="sourcePoint" />
            <mxPoint x="60" as="targetPoint" />
          </mxGeometry>
        </mxCell>
      </root>
    </mxGraphModel>
  </diagram>
</mxfile>
